#Comment line ignore any data following # character 
#Hierarchical Translation and Rotation (.htr) file 
[Header]	
#Header keywords are followed by a single value 
FileType HTR		#Single word string
DataType HTRS		#Translation followed by rotation and scale data
FileVersion 1		#integer
NumSegments 84		#integer
NumFrames 2		#integer
DataFrameRate 30		#integer, data frame rate in this file
EulerRotationOrder ZYX
CalibrationUnits mm
RotationUnits Degrees
GlobalAxisofGravity Y
BoneLengthAxis Y
ScaleFactor 1.00
[SegmentNames&Hierarchy]
#CHILD	PARENT
MASTER GLOBAL
root MASTER
chest root
L_mid_tent01 root
R_mid_tent01 root
spine01 root
Bip01_Neck chest
L_humerus chest
R_humerus chest
weapon_bone chest
Bip01_Head Bip01_Neck
eye_left_bone Bip01_Head
eye_right_bone Bip01_Head
L_forearm L_humerus
L_front_hand L_forearm
L_weapon_bone L_forearm
L_front_hand01_01 L_front_hand
L_front_hand02_01 L_front_hand
L_front_hand03_01 L_front_hand
L_front_hand01_02 L_front_hand01_01
L_front_hand02_02 L_front_hand02_01
L_front_hand03_02 L_front_hand03_01
R_forearm R_humerus
R_front_hand R_forearm
R_weapon_bone R_forearm
R_front_hand01_01 R_front_hand
R_front_hand02_01 R_front_hand
R_front_hand03_01 R_front_hand
R_front_hand01_02 R_front_hand01_01
R_front_hand02_02 R_front_hand02_01
R_front_hand03_02 R_front_hand03_01
null_rope01_connect L_mid_tent01
Rope1_Seg01 null_rope01_connect
Rope1_Seg02 Rope1_Seg01
Rope1_Seg03 Rope1_Seg02
Rope1_Seg04 Rope1_Seg03
Rope1_Seg05 Rope1_Seg04
Rope1_Seg06 Rope1_Seg05
Rope1_Seg07 Rope1_Seg06
Rope1_Seg09 Rope1_Seg07
L_mid_hand01 Rope1_Seg09
L_mid_hand02 Rope1_Seg09
L_mid_hand03 Rope1_Seg09
null_rope02_connect R_mid_tent01
Rope2_Seg01 null_rope02_connect
Rope2_Seg02 Rope2_Seg01
Rope2_Seg03 Rope2_Seg02
Rope2_Seg04 Rope2_Seg03
Rope2_Seg05 Rope2_Seg04
Rope2_Seg06 Rope2_Seg05
Rope2_Seg07 Rope2_Seg06
Rope2_Seg09 Rope2_Seg07
R_mid_hand01 Rope2_Seg09
R_mid_hand02 Rope2_Seg09
R_mid_hand03 Rope2_Seg09
spine02 spine01
spine03 spine02
pelvis spine03
null_rope03_connect pelvis
null_rope04_connect pelvis
Rope3_Seg01 null_rope03_connect
Rope3_Seg02 Rope3_Seg01
Rope3_Seg03 Rope3_Seg02
Rope3_Seg04 Rope3_Seg03
Rope3_Seg05 Rope3_Seg04
Rope3_Seg06 Rope3_Seg05
Rope3_Seg07 Rope3_Seg06
Rope3_Seg08 Rope3_Seg07
Rope3_Seg09 Rope3_Seg08
R_rear_hand01 Rope3_Seg09
R_rear_hand02 Rope3_Seg09
R_rear_hand03 Rope3_Seg09
Rope4_Seg01 null_rope04_connect
Rope4_Seg02 Rope4_Seg01
Rope4_Seg03 Rope4_Seg02
Rope4_Seg04 Rope4_Seg03
Rope4_Seg05 Rope4_Seg04
Rope4_Seg06 Rope4_Seg05
Rope4_Seg07 Rope4_Seg06
Rope4_Seg08 Rope4_Seg07
Rope4_Seg09 Rope4_Seg08
L_rear_hand01 Rope4_Seg09
L_rear_hand02 Rope4_Seg09
L_rear_hand03 Rope4_Seg09
[BasePosition]
#SegmentName Tx, Ty, Tz, Rx, Ry, Rz, BoneLength
MASTER 0.000000 0.000000 0.000000 -90.000000 0.000000 0.000000 10.000000 
root 0.000000 0.000000 0.000000 0.000000 0.000000 0.000000 10.000000 
chest 0.000000 0.000000 0.000000 0.000000 0.000000 0.000000 10.000000 
L_mid_tent01 0.000000 0.000000 0.000000 0.000000 0.000000 0.000000 10.000000 
R_mid_tent01 0.000000 0.000000 0.000000 0.000000 0.000000 0.000000 10.000000 
spine01 0.000000 0.000000 0.000000 0.000000 0.000000 0.000000 10.000000 
Bip01_Neck 0.000000 0.000000 0.000000 0.000000 0.000000 0.000000 10.000000 
L_humerus 0.000000 0.000000 0.000000 0.000000 0.000000 0.000000 10.000000 
R_humerus 0.000000 0.000000 0.000000 0.000000 0.000000 0.000000 10.000000 
weapon_bone 0.000000 0.000000 0.000000 0.000000 0.000000 0.000000 10.000000 
Bip01_Head 0.000000 0.000000 0.000000 0.000000 0.000000 0.000000 10.000000 
eye_left_bone 0.000000 0.000000 0.000000 0.000000 0.000000 0.000000 10.000000 
eye_right_bone 0.000000 0.000000 0.000000 0.000000 0.000000 0.000000 10.000000 
L_forearm 0.000000 0.000000 0.000000 0.000000 0.000000 0.000000 10.000000 
L_front_hand 0.000000 0.000000 0.000000 0.000000 0.000000 0.000000 10.000000 
L_weapon_bone 0.000000 0.000000 0.000000 0.000000 0.000000 0.000000 10.000000 
L_front_hand01_01 0.000000 0.000000 0.000000 0.000000 0.000000 0.000000 10.000000 
L_front_hand02_01 0.000000 0.000000 0.000000 0.000000 0.000000 0.000000 10.000000 
L_front_hand03_01 0.000000 0.000000 0.000000 0.000000 0.000000 0.000000 10.000000 
L_front_hand01_02 0.000000 0.000000 0.000000 0.000000 0.000000 0.000000 10.000000 
L_front_hand02_02 0.000000 0.000000 0.000000 0.000000 0.000000 0.000000 10.000000 
L_front_hand03_02 0.000000 0.000000 0.000000 0.000000 0.000000 0.000000 10.000000 
R_forearm 0.000000 0.000000 0.000000 0.000000 0.000000 0.000000 10.000000 
R_front_hand 0.000000 0.000000 0.000000 0.000000 0.000000 0.000000 10.000000 
R_weapon_bone 0.000000 0.000000 0.000000 0.000000 0.000000 0.000000 10.000000 
R_front_hand01_01 0.000000 0.000000 0.000000 0.000000 0.000000 0.000000 10.000000 
R_front_hand02_01 0.000000 0.000000 0.000000 0.000000 0.000000 0.000000 10.000000 
R_front_hand03_01 0.000000 0.000000 0.000000 0.000000 0.000000 0.000000 10.000000 
R_front_hand01_02 0.000000 0.000000 0.000000 0.000000 0.000000 0.000000 10.000000 
R_front_hand02_02 0.000000 0.000000 0.000000 0.000000 0.000000 0.000000 10.000000 
R_front_hand03_02 0.000000 0.000000 0.000000 0.000000 0.000000 0.000000 10.000000 
null_rope01_connect 0.000000 0.000000 0.000000 0.000000 0.000000 0.000000 10.000000 
Rope1_Seg01 0.000000 0.000000 0.000000 0.000000 0.000000 0.000000 10.000000 
Rope1_Seg02 0.000000 0.000000 0.000000 0.000000 0.000000 0.000000 10.000000 
Rope1_Seg03 0.000000 0.000000 0.000000 0.000000 0.000000 0.000000 10.000000 
Rope1_Seg04 0.000000 0.000000 0.000000 0.000000 0.000000 0.000000 10.000000 
Rope1_Seg05 0.000000 0.000000 0.000000 0.000000 0.000000 0.000000 10.000000 
Rope1_Seg06 0.000000 0.000000 0.000000 0.000000 0.000000 0.000000 10.000000 
Rope1_Seg07 0.000000 0.000000 0.000000 0.000000 0.000000 0.000000 10.000000 
Rope1_Seg09 0.000000 0.000000 0.000000 0.000000 0.000000 0.000000 10.000000 
L_mid_hand01 0.000000 0.000000 0.000000 0.000000 0.000000 0.000000 10.000000 
L_mid_hand02 0.000000 0.000000 0.000000 0.000000 0.000000 0.000000 10.000000 
L_mid_hand03 0.000000 0.000000 0.000000 0.000000 0.000000 0.000000 10.000000 
null_rope02_connect 0.000000 0.000000 0.000000 0.000000 0.000000 0.000000 10.000000 
Rope2_Seg01 0.000000 0.000000 0.000000 0.000000 0.000000 0.000000 10.000000 
Rope2_Seg02 0.000000 0.000000 0.000000 0.000000 0.000000 0.000000 10.000000 
Rope2_Seg03 0.000000 0.000000 0.000000 0.000000 0.000000 0.000000 10.000000 
Rope2_Seg04 0.000000 0.000000 0.000000 0.000000 0.000000 0.000000 10.000000 
Rope2_Seg05 0.000000 0.000000 0.000000 0.000000 0.000000 0.000000 10.000000 
Rope2_Seg06 0.000000 0.000000 0.000000 0.000000 0.000000 0.000000 10.000000 
Rope2_Seg07 0.000000 0.000000 0.000000 0.000000 0.000000 0.000000 10.000000 
Rope2_Seg09 0.000000 0.000000 0.000000 0.000000 0.000000 0.000000 10.000000 
R_mid_hand01 0.000000 0.000000 0.000000 0.000000 0.000000 0.000000 10.000000 
R_mid_hand02 0.000000 0.000000 0.000000 0.000000 0.000000 0.000000 10.000000 
R_mid_hand03 0.000000 0.000000 0.000000 0.000000 0.000000 0.000000 10.000000 
spine02 0.000000 0.000000 0.000000 0.000000 0.000000 0.000000 10.000000 
spine03 0.000000 0.000000 0.000000 0.000000 0.000000 0.000000 10.000000 
pelvis 0.000000 0.000000 0.000000 0.000000 0.000000 0.000000 10.000000 
null_rope03_connect 0.000000 0.000000 0.000000 0.000000 0.000000 0.000000 10.000000 
null_rope04_connect 0.000000 0.000000 0.000000 0.000000 0.000000 0.000000 10.000000 
Rope3_Seg01 0.000000 0.000000 0.000000 0.000000 0.000000 0.000000 10.000000 
Rope3_Seg02 0.000000 0.000000 0.000000 0.000000 0.000000 0.000000 10.000000 
Rope3_Seg03 0.000000 0.000000 0.000000 0.000000 0.000000 0.000000 10.000000 
Rope3_Seg04 0.000000 0.000000 0.000000 0.000000 0.000000 0.000000 10.000000 
Rope3_Seg05 0.000000 0.000000 0.000000 0.000000 0.000000 0.000000 10.000000 
Rope3_Seg06 0.000000 0.000000 0.000000 0.000000 0.000000 0.000000 10.000000 
Rope3_Seg07 0.000000 0.000000 0.000000 0.000000 0.000000 0.000000 10.000000 
Rope3_Seg08 0.000000 0.000000 0.000000 0.000000 0.000000 0.000000 10.000000 
Rope3_Seg09 0.000000 0.000000 0.000000 0.000000 0.000000 0.000000 10.000000 
R_rear_hand01 0.000000 0.000000 0.000000 0.000000 0.000000 0.000000 10.000000 
R_rear_hand02 0.000000 0.000000 0.000000 0.000000 0.000000 0.000000 10.000000 
R_rear_hand03 0.000000 0.000000 0.000000 0.000000 0.000000 0.000000 10.000000 
Rope4_Seg01 0.000000 0.000000 0.000000 0.000000 0.000000 0.000000 10.000000 
Rope4_Seg02 0.000000 0.000000 0.000000 0.000000 0.000000 0.000000 10.000000 
Rope4_Seg03 0.000000 0.000000 0.000000 0.000000 0.000000 0.000000 10.000000 
Rope4_Seg04 0.000000 0.000000 0.000000 0.000000 0.000000 0.000000 10.000000 
Rope4_Seg05 0.000000 0.000000 0.000000 0.000000 0.000000 0.000000 10.000000 
Rope4_Seg06 0.000000 0.000000 0.000000 0.000000 0.000000 0.000000 10.000000 
Rope4_Seg07 0.000000 0.000000 0.000000 0.000000 0.000000 0.000000 10.000000 
Rope4_Seg08 0.000000 0.000000 0.000000 0.000000 0.000000 0.000000 10.000000 
Rope4_Seg09 0.000000 0.000000 0.000000 0.000000 0.000000 0.000000 10.000000 
L_rear_hand01 0.000000 0.000000 0.000000 0.000000 0.000000 0.000000 10.000000 
L_rear_hand02 0.000000 0.000000 0.000000 0.000000 0.000000 0.000000 10.000000 
L_rear_hand03 0.000000 0.000000 0.000000 0.000000 0.000000 0.000000 10.000000 
#Beginning of Data. Separated by tabs
#Fr	Tx	Ty	Tz	Rx	Ry	Rz	SF
[MASTER]
12 1253.673340 -2049.977783 0.000000 0.000175 -0.002341 -98.557297 2402.936768
13 1305.994385 -2258.464844 0.000000 0.000202 -0.002338 -99.888420 2608.885742
[root]
12 -62.822037 -4.425942 1003.756531 -74.177719 -8.827795 -179.869308 1005.730225
13 -62.822163 -2.273295 1000.282776 -74.654015 -8.428534 -179.849655 1002.256165
[chest]
12 -84.512650 -34.090519 0.000000 -9.702924 5.144506 155.379761 91.129311
13 -84.512650 -34.090519 0.000000 -9.637137 5.103617 155.392838 91.129311
[L_mid_tent01]
12 23.228750 24.509907 -223.761200 -18.217384 37.688221 -23.833279 226.294907
13 23.228750 24.509907 -223.761200 -17.020876 40.639122 -20.685469 226.294907
[R_mid_tent01]
12 23.228794 24.509907 226.238495 -158.803391 18.001837 -13.426157 228.744751
13 23.228794 24.509907 226.238495 -158.548950 20.450691 -11.997756 228.744751
[spine01]
12 -0.361383 -0.195265 0.000000 0.001815 0.001488 11.320962 0.410763
13 -0.361383 -0.195265 0.000000 0.001815 0.001488 11.320962 0.410763
[Bip01_Neck]
12 165.484543 71.581718 0.000119 175.896118 1.177290 24.871183 180.302734
13 165.484543 71.581718 0.000119 175.896118 1.177290 24.871180 180.302734
[L_humerus]
12 -13.983130 -135.272980 -120.471481 165.769836 16.003845 -108.013046 181.680161
13 -13.983130 -135.272980 -120.471481 165.187820 18.292549 -107.994080 181.680161
[R_humerus]
12 -13.983309 -135.273102 125.287651 -166.816681 -6.224649 -103.559349 184.909012
13 -13.983309 -135.273102 125.287651 -166.567993 -8.630765 -103.417015 184.909012
[weapon_bone]
12 235.964890 -300.705902 0.000000 0.000000 -89.951546 -128.212341 382.234833
13 235.964890 -300.705902 0.000000 0.000000 -89.951546 -128.212341 382.234833
[Bip01_Head]
12 201.313782 211.516800 15.929725 -19.095907 6.024596 -73.010368 292.438629
13 201.313782 211.516785 15.929725 -18.801601 5.721329 -72.464020 292.438629
[eye_left_bone]
12 -24.626970 125.451866 -64.772606 0.000000 -90.000000 -99.840431 143.318359
13 -24.626970 125.451866 -64.772606 0.000000 -90.000000 -99.840431 143.318359
[eye_right_bone]
12 -24.626970 125.451866 64.327362 0.000000 -89.965736 80.156380 143.117676
13 -24.626970 125.451866 64.327362 0.000000 -89.965736 80.156380 143.117676
[L_forearm]
12 322.776093 0.000000 -0.000119 0.000357 -0.002320 -107.506004 322.776093
13 322.776093 0.000000 -0.000119 0.000357 -0.002320 -107.506004 322.776093
[L_front_hand]
12 241.149185 -0.042021 -3.300071 -179.431961 -2.195943 -5.942918 241.171753
13 241.149185 -0.042021 -3.300071 -179.431961 -2.195943 -5.942917 241.171753
[L_weapon_bone]
12 156.183838 0.000000 0.000000 0.000014 0.000007 0.000001 156.183838
13 156.183838 0.000000 0.000000 0.000014 0.000007 0.000001 156.183838
[L_front_hand01_01]
12 86.095154 20.947098 -0.655860 0.139491 -0.584553 24.181786 88.609184
13 86.095154 20.947098 -0.655860 0.139491 -0.584553 24.181786 88.609184
[L_front_hand02_01]
12 86.935165 -11.437475 24.513514 119.190460 -21.905651 -12.119137 91.046425
13 86.935165 -11.437475 24.513514 119.190460 -21.905653 -12.119133 91.046425
[L_front_hand03_01]
12 86.637497 -14.123976 -20.424902 -120.437630 20.554037 -14.327168 90.126129
13 86.637497 -14.123976 -20.424902 -120.437630 20.554029 -14.327168 90.126129
[L_front_hand01_02]
12 71.020905 -0.000179 0.000030 0.000334 -0.002323 -106.379684 71.020905
13 71.020905 -0.000179 0.000030 0.000334 -0.002323 -106.379684 71.020905
[L_front_hand02_02]
12 71.020927 -0.000119 0.000060 0.000334 -0.002323 -106.379684 71.020927
13 71.020927 -0.000119 0.000060 0.000334 -0.002323 -106.379684 71.020927
[L_front_hand03_02]
12 71.020905 -0.000060 0.000060 0.000334 -0.002323 -106.379684 71.020905
13 71.020905 -0.000060 0.000060 0.000334 -0.002323 -106.379684 71.020905
[R_forearm]
12 322.776428 -0.000060 0.000030 0.196737 0.083011 -114.368637 322.776428
13 322.776428 -0.000060 0.000030 0.196737 0.083011 -114.368637 322.776428
[R_front_hand]
12 238.847015 -0.006795 2.210259 -0.341870 1.692705 -0.151779 238.857239
13 238.847015 -0.006795 2.210259 -0.341870 1.692705 -0.151779 238.857239
[R_weapon_bone]
12 155.664093 0.002503 -0.000030 0.003487 0.001180 -90.988930 155.664078
13 155.664093 0.002503 -0.000030 0.003487 0.001180 -90.988930 155.664078
[R_front_hand01_01]
12 87.624611 14.231146 22.918642 -119.218056 -22.033409 12.303375 91.683487
13 87.624611 14.231146 22.918642 -119.218071 -22.033403 12.303374 91.683487
[R_front_hand02_01]
12 89.356956 14.367283 -19.491137 120.545532 20.947184 14.823009 92.579636
13 89.356956 14.367283 -19.491137 120.545532 20.947184 14.823009 92.579636
[R_front_hand03_01]
12 87.286232 -22.307278 -0.143439 -0.231628 -0.392922 -24.567768 90.091743
13 87.286232 -22.307278 -0.143439 -0.231628 -0.392922 -24.567768 90.091743
[R_front_hand01_02]
12 71.020905 0.000060 0.000119 0.002323 -0.000334 106.381714 71.020905
13 71.020905 0.000060 0.000119 0.002323 -0.000334 106.381706 71.020905
[R_front_hand02_02]
12 71.020844 -0.000030 -0.000119 0.002323 -0.000334 106.381714 71.020836
13 71.020844 -0.000030 -0.000119 0.002323 -0.000334 106.381706 71.020836
[R_front_hand03_02]
12 71.020905 0.000000 0.000030 0.002323 -0.000334 106.381714 71.020905
13 71.020905 0.000000 0.000030 0.002323 -0.000334 106.381706 71.020905
[null_rope01_connect]
12 328.732483 0.000000 -0.000238 70.697647 39.604458 2.420907 328.732483
13 328.732483 0.000000 -0.000238 72.730522 36.331715 0.803968 328.732483
[Rope1_Seg01]
12 0.000068 0.000000 -0.000048 54.765438 -24.649881 54.506329 0.000083
13 0.000072 0.000000 -0.000046 52.973900 -25.687225 55.944160 0.000086
[Rope1_Seg02]
12 139.999863 -0.000179 0.000000 -1.490935 1.619474 0.786889 139.999863
13 139.999863 -0.000179 0.000000 -0.620098 0.813854 0.200038 139.999863
[Rope1_Seg03]
12 139.999924 0.000060 -0.000060 -2.190823 2.290314 1.194780 139.999924
13 139.999924 0.000060 -0.000060 -0.870952 1.116698 0.289939 139.999924
[Rope1_Seg04]
12 139.999924 -0.000060 -0.000119 -3.616329 3.600697 2.056440 139.999924
13 139.999924 -0.000060 -0.000119 -1.356772 1.678956 0.461597 139.999924
[Rope1_Seg05]
12 139.999832 0.000119 -0.000060 -0.363624 0.274603 0.292583 139.999832
13 139.999832 0.000119 -0.000060 4.471964 -2.978828 -3.962422 139.999832
[Rope1_Seg06]
12 139.999954 0.000119 -0.000060 -25.331001 29.152386 21.771582 139.999954
13 139.999954 0.000119 -0.000060 2.186385 0.234560 -3.645069 139.999954
[Rope1_Seg07]
12 139.999985 0.000060 0.000000 -12.085669 17.315401 40.304577 139.999985
13 139.999985 0.000060 0.000000 -15.539643 58.973774 66.955910 139.999985
[Rope1_Seg09]
12 121.602913 0.000119 -0.000089 -89.793175 -1.359789 0.847147 121.602913
13 121.602913 0.000119 -0.000089 -89.793175 -1.359789 0.847147 121.602913
[L_mid_hand01]
12 103.859421 1.038730 8.195221 106.855484 -31.239275 -9.461397 104.187431
13 103.859421 1.038730 8.195221 106.855484 -31.239275 -9.461397 104.187431
[L_mid_hand02]
12 105.572853 -4.139662 -10.864139 -142.331345 25.752670 -28.774628 106.211075
13 105.572853 -4.139662 -10.864139 -142.331345 25.752670 -28.774628 106.211075
[L_mid_hand03]
12 104.641464 17.579376 -3.913581 -16.122810 9.734291 34.223598 106.179977
13 104.641464 17.579376 -3.913581 -16.122810 9.734291 34.223598 106.179977
[null_rope02_connect]
12 328.732849 0.000179 -0.000119 -163.122345 -45.812092 45.933571 328.732849
13 328.732849 0.000179 -0.000119 -158.283020 -43.890518 42.201496 328.732849
[Rope2_Seg01]
12 -0.000122 -0.000097 -0.000097 21.608915 -75.735710 140.188614 0.000183
13 -0.000124 -0.000092 -0.000092 -40.488636 -81.448639 -155.448898 0.000179
[Rope2_Seg02]
12 139.999741 -0.000060 -0.000119 -1.454113 17.067316 -12.237017 139.999756
13 139.999741 -0.000060 -0.000119 -2.201548 12.482697 -12.949202 139.999756
[Rope2_Seg03]
12 140.000107 0.000030 0.000000 2.757076 21.181210 -21.751799 140.000107
13 140.000107 0.000030 0.000000 0.930241 21.756039 -34.397552 140.000107
[Rope2_Seg04]
12 139.999802 0.000000 -0.000060 18.209150 14.250618 -19.566757 139.999802
13 139.999802 0.000000 -0.000060 25.755486 15.525211 -31.701118 139.999802
[Rope2_Seg05]
12 139.999985 -0.000060 0.000119 -33.369038 13.478571 9.082475 139.999985
13 139.999985 -0.000060 0.000119 -49.384624 25.605680 8.714743 139.999985
[Rope2_Seg06]
12 139.999893 -0.000030 -0.000119 -27.220499 1.489749 16.438772 139.999893
13 139.999893 -0.000030 -0.000119 -32.694710 3.522288 17.769831 139.999893
[Rope2_Seg07]
12 139.999893 0.000060 -0.000060 -6.362185 -0.864810 5.103896 139.999893
13 139.999893 0.000060 -0.000060 -6.378152 -0.727037 4.803818 139.999893
[Rope2_Seg09]
12 121.338966 0.000089 -0.000060 33.793236 -1.359788 -0.847141 121.338966
13 121.338966 0.000089 -0.000060 33.793236 -1.359788 -0.847141 121.338966
[R_mid_hand01]
12 104.680779 11.144459 -10.335981 -41.523792 25.424656 28.595957 105.778534
13 104.680779 11.144459 -10.335981 -41.523792 25.424656 28.595957 105.778534
[R_mid_hand02]
12 104.070427 2.443552 8.231699 72.847389 -32.746803 10.013901 104.424065
13 104.070427 2.443552 8.231699 72.847389 -32.746803 10.013901 104.424065
[R_mid_hand03]
12 106.028137 -11.221827 -5.996406 -167.901306 10.259192 -37.009720 106.788818
13 106.028137 -11.221827 -5.996406 -167.901306 10.259192 -37.009720 106.788818
[spine02]
12 129.756927 0.001550 0.000119 0.001147 -1.797838 -7.854275 129.756927
13 129.756927 0.001550 0.000119 0.001147 -1.797837 -7.854274 129.756927
[spine03]
12 79.115631 0.000000 -0.000119 1.459971 -2.848092 23.765965 79.115631
13 79.115631 0.000000 -0.000119 1.459971 -2.848092 23.765959 79.115631
[pelvis]
12 169.435242 0.051022 0.000000 -0.000005 0.000003 -4.322055 169.435257
13 169.435242 0.051022 0.000000 -0.000005 0.000003 -4.322055 169.435257
[null_rope03_connect]
12 -1.257226 -2.466202 137.391083 4.955052 72.222931 -97.364189 137.418976
13 -1.257226 -2.466202 137.391083 9.874046 72.440826 -92.694855 137.418976
[null_rope04_connect]
12 -1.259640 -2.480268 -137.844437 4.955052 72.222931 -97.364189 137.872513
13 -1.259640 -2.480268 -137.844437 9.874046 72.440826 -92.694855 137.872513
[Rope3_Seg01]
12 0.000068 0.000000 -0.000048 -123.644524 -15.249352 77.741379 0.000083
13 0.000072 0.000000 -0.000046 -116.070938 -18.144295 64.177414 0.000086
[Rope3_Seg02]
12 139.999924 -0.000119 0.000060 -1.440375 -5.408178 0.653986 139.999924
13 139.999924 -0.000119 0.000060 -2.759688 -6.584594 0.289279 139.999924
[Rope3_Seg03]
12 139.999924 -0.000119 0.000119 -1.452669 -6.676266 0.641300 139.999924
13 139.999924 -0.000119 0.000119 -2.877454 -8.675146 -0.038032 139.999924
[Rope3_Seg04]
12 139.999924 0.000119 0.000000 -1.471542 -9.800034 0.276758 139.999924
13 139.999924 0.000119 0.000000 -2.709211 -12.275899 -0.836405 139.999924
[Rope3_Seg05]
12 139.999924 -0.000238 0.000060 -0.205047 -16.537409 -1.088017 139.999924
13 139.999924 -0.000238 0.000060 -0.661535 -20.556740 -3.301856 139.999924
[Rope3_Seg06]
12 139.999893 -0.000119 -0.000060 0.512488 -2.178994 2.015193 139.999893
13 139.999893 -0.000119 -0.000060 0.834906 -7.178191 -0.169638 139.999893
[Rope3_Seg07]
12 139.999771 0.000060 -0.000119 2.288981 16.303085 6.494044 139.999771
13 139.999771 0.000060 -0.000119 0.732813 9.735761 4.383511 139.999771
[Rope3_Seg08]
12 139.999985 -0.000060 0.000000 3.198242 11.542149 4.697137 139.999985
13 139.999985 -0.000060 0.000000 1.479362 8.798767 3.916091 139.999985
[Rope3_Seg09]
12 90.185997 -0.000179 -0.000060 89.793228 -1.359877 -0.847183 90.185997
13 90.185997 -0.000179 -0.000060 89.793228 -1.359877 -0.847183 90.185997
[R_rear_hand01]
12 103.366196 -6.073594 -10.757982 -161.551193 16.666374 -30.088671 104.101845
13 103.366196 -6.073594 -10.757982 -161.551193 16.666374 -30.088671 104.101845
[R_rear_hand02]
12 100.509819 12.039542 -7.992327 -34.280552 19.289745 28.875523 101.543350
13 100.509819 12.039542 -7.992327 -34.280552 19.289745 28.875523 101.543350
[R_rear_hand03]
12 101.539970 5.215704 5.435467 83.366440 -30.933914 7.284830 101.819031
13 101.539970 5.215704 5.435467 83.366440 -30.933914 7.284830 101.819031
[Rope4_Seg01]
12 0.000016 -0.000175 -0.000153 80.211853 -47.627209 40.627789 0.000233
13 0.000015 -0.000198 -0.000153 89.582451 -42.329704 26.111134 0.000251
[Rope4_Seg02]
12 139.999985 0.000060 0.000119 -8.218760 16.015152 -6.651228 139.999985
13 139.999985 0.000060 0.000119 -8.436664 13.003016 -3.886573 139.999985
[Rope4_Seg03]
12 139.999924 0.000000 -0.000238 -5.202937 21.786537 -6.018102 139.999924
13 139.999924 0.000000 -0.000238 -6.720254 20.641100 -3.177262 139.999924
[Rope4_Seg04]
12 139.999985 0.000000 0.000119 0.618456 27.490314 -2.912494 139.999985
13 139.999985 0.000000 0.000119 -1.498619 28.503092 0.059920 139.999985
[Rope4_Seg05]
12 139.999802 -0.000060 -0.000119 2.982813 12.838937 -2.087391 139.999802
13 139.999802 -0.000060 -0.000119 2.817448 21.132477 1.257053 139.999802
[Rope4_Seg06]
12 139.999924 0.000000 0.000060 1.164242 -0.618552 -2.744977 139.999924
13 139.999924 0.000000 0.000060 1.724752 4.078728 -1.649468 139.999924
[Rope4_Seg07]
12 139.999802 0.000000 0.000000 0.125181 -12.431365 -4.560245 139.999802
13 139.999802 0.000000 0.000000 0.817590 -5.010349 -3.817008 139.999802
[Rope4_Seg08]
12 139.999924 0.000000 0.000119 -1.000777 -12.671903 -5.009489 139.999924
13 139.999924 0.000000 0.000119 -0.883649 -11.147236 -5.708799 139.999924
[Rope4_Seg09]
12 90.185791 0.000060 0.000060 -135.617828 2.228885 0.850567 90.185791
13 90.185791 0.000060 0.000060 -135.617828 2.228885 0.850567 90.185791
[L_rear_hand01]
12 101.696655 -8.392275 -7.654577 -34.454281 -18.946800 151.655121 102.329041
13 101.696655 -8.392275 -7.654577 -34.454281 -18.946800 151.655121 102.329041
[L_rear_hand02]
12 102.726799 -1.568258 5.773216 83.407906 30.330435 172.796509 102.900848
13 102.726799 -1.568258 5.773216 83.407906 30.330435 172.796509 102.900848
[L_rear_hand03]
12 104.552910 9.721220 -10.420293 -161.379868 -16.473232 -150.512238 105.519653
13 104.552910 9.721220 -10.420293 -161.379868 -16.473232 -150.512238 105.519653
